<svg xmlns="http://www.w3.org/2000/svg" viewBox="0 0 820 360" role="img" aria-labelledby="title desc">
  <title id="title">Illustration bloc-notes</title>
  <desc id="desc">Un etudiant assis avec un carnet devant un grand bloc-notes.</desc>
  <defs>
    <linearGradient id="bg" x1="0" y1="0" x2="1" y2="1">
      <stop offset="0" stop-color="#f2fbff"/>
      <stop offset="1" stop-color="#dff1fb"/>
    </linearGradient>
    <linearGradient id="book" x1="0" y1="0" x2="1" y2="1">
      <stop offset="0" stop-color="#57bbe5"/>
      <stop offset="1" stop-color="#2f97cd"/>
    </linearGradient>
  </defs>

  <rect x="0" y="0" width="820" height="360" rx="30" fill="url(#bg)"/>
  <ellipse cx="410" cy="300" rx="330" ry="34" fill="#cde7f6" opacity="0.65"/>

  <rect x="120" y="40" width="270" height="220" rx="26" fill="#ffffff" stroke="#89c4e3" stroke-width="8"/>
  <rect x="105" y="52" width="24" height="110" rx="10" fill="#2f97cd"/>
  <circle cx="168" cy="57" r="8" fill="#377fb0"/>
  <circle cx="214" cy="57" r="8" fill="#377fb0"/>
  <path d="M168 57v22M214 57v22" stroke="#377fb0" stroke-width="5" stroke-linecap="round"/>
  <path d="M156 104h180M156 128h180M156 152h180M156 176h180" stroke="#d3e8f4" stroke-width="8" stroke-linecap="round"/>

  <circle cx="486" cy="152" r="58" fill="#ffd9c4"/>
  <path d="M450 150c8-28 66-40 86-2" fill="#3b3b3b"/>
  <circle cx="466" cy="150" r="4" fill="#2d2d2d"/>
  <circle cx="500" cy="150" r="4" fill="#2d2d2d"/>
  <path d="M470 174c8 6 20 6 28 0" stroke="#cc7c60" stroke-width="4" fill="none" stroke-linecap="round"/>

  <path d="M430 196c26-18 92-18 118 0l30 78H396z" fill="#60bce5"/>
  <rect x="444" y="222" width="126" height="78" rx="10" fill="#4eaad8"/>
  <rect x="452" y="228" width="110" height="66" rx="8" fill="#e9f7ff"/>
  <path d="M478 244l20 14 28-24" stroke="#4eaad8" stroke-width="5" fill="none" stroke-linecap="round"/>

  <ellipse cx="450" cy="302" rx="50" ry="20" fill="#2b89b8"/>
  <ellipse cx="540" cy="302" rx="50" ry="20" fill="#2b89b8"/>

  <rect x="634" y="146" width="90" height="130" rx="10" fill="#56b7e2"/>
  <rect x="656" y="130" width="8" height="60" rx="4" fill="#ffb95f"/>
  <rect x="680" y="120" width="8" height="70" rx="4" fill="#7ed2f1"/>
  <rect x="704" y="126" width="8" height="64" rx="4" fill="#5ebde7"/>

  <circle cx="620" cy="60" r="20" fill="#ffe37f"/>
  <path d="M620 36v-12M620 96v12M598 60h-12M642 60h12" stroke="#f3c463" stroke-width="4" stroke-linecap="round"/>
</svg>
